<?xml version="1.0" standalone="no"?>
<!DOCTYPE svg PUBLIC "-//W3C//DTD SVG 20010904//EN"
 "http://www.w3.org/TR/2001/REC-SVG-20010904/DTD/svg10.dtd">
<svg version="1.0" xmlns="http://www.w3.org/2000/svg"
 width="2162.000000pt" height="727.000000pt" viewBox="0 0 2162.000000 727.000000"
 preserveAspectRatio="xMidYMid meet">

<g transform="translate(0.000000,727.000000) scale(0.100000,-0.100000)"
fill="#000000" stroke="none">
<path d="M2685 5389 c-38 -5 -124 -23 -189 -40 -706 -179 -1203 -694 -1358
-1410 -19 -90 -22 -134 -22 -329 0 -197 2 -238 22 -330 121 -558 472 -1014
973 -1265 487 -245 1007 -257 1522 -35 458 198 825 602 987 1087 64 193 81
293 87 503 5 212 -8 325 -57 498 -151 524 -485 931 -945 1152 -191 91 -369
145 -565 169 -99 13 -355 12 -455 0z m-135 -1139 l0 -490 265 0 265 0 -2 -187
-3 -188 -257 -3 -258 -2 0 -39 c0 -62 37 -187 80 -270 92 -177 249 -293 452
-335 93 -19 150 -20 241 -2 63 12 69 12 77 -5 6 -10 10 -99 10 -198 l0 -181
-26 -6 c-14 -4 -100 -4 -192 -1 -128 4 -186 10 -247 27 -186 50 -342 140 -473
272 -131 130 -220 286 -279 489 l-27 94 -4 758 -3 757 191 0 190 0 0 -490z
m962 300 c100 -47 159 -131 166 -237 8 -119 -52 -219 -165 -275 -65 -31 -187
-33 -254 -2 -155 71 -217 236 -143 380 34 67 103 126 174 149 62 20 163 14
222 -15z"/>
<path d="M6043 4432 l-222 -167 47 -5 47 -5 3 -142 3 -143 -80 0 -80 0 -34
-42 c-72 -89 -197 -281 -197 -303 0 -3 87 -5 194 -5 l193 0 6 -292 c6 -331 12
-369 79 -508 33 -68 57 -101 122 -166 127 -126 257 -179 462 -191 l104 -6 0
170 0 170 -74 6 c-155 13 -259 82 -307 203 -22 57 -23 70 -24 334 l0 275 203
3 202 2 0 175 0 175 -205 0 -205 0 0 315 c0 173 -3 315 -7 314 -5 0 -108 -75
-230 -167z"/>
<path d="M8518 4085 c-96 -18 -227 -70 -305 -121 -89 -59 -204 -178 -257 -269
-25 -44 -61 -123 -78 -175 -30 -90 -32 -103 -32 -255 -1 -180 10 -238 69 -362
134 -286 396 -461 715 -479 219 -13 380 38 545 172 l55 45 0 -85 0 -86 175 0
175 0 0 780 0 780 -175 0 -175 0 0 -80 0 -80 -67 55 c-175 141 -421 202 -645
160z m328 -346 c88 -27 146 -60 212 -123 104 -98 156 -218 155 -356 -2 -278
-229 -499 -513 -500 -142 0 -255 45 -356 141 -102 99 -154 218 -154 355 0 337
332 582 656 483z"/>
<path d="M10475 4086 c-216 -43 -395 -153 -521 -319 -56 -73 -125 -216 -150
-307 -25 -91 -26 -310 -1 -399 46 -167 103 -266 222 -387 181 -184 397 -265
660 -251 309 18 567 183 696 445 22 46 39 85 37 87 -6 6 -288 45 -324 45 -19
0 -34 -4 -34 -10 0 -5 -27 -38 -60 -73 -156 -168 -404 -206 -612 -95 -68 36
-160 131 -200 204 -151 280 11 636 327 719 113 29 238 14 355 -42 53 -26 160
-122 192 -173 l16 -25 163 33 c90 18 165 35 167 37 9 9 -9 52 -45 113 -119
195 -273 313 -498 378 -112 32 -284 41 -390 20z"/>
<path d="M12284 4090 c-280 -51 -505 -218 -624 -465 -69 -142 -84 -212 -84
-370 1 -161 22 -246 95 -386 111 -212 301 -360 546 -425 102 -27 329 -25 438
5 245 66 438 231 539 459 11 23 17 44 14 47 -6 7 -184 33 -272 40 l-71 6 -45
-57 c-87 -111 -212 -174 -361 -182 -158 -8 -279 38 -390 148 -197 196 -197
498 1 699 155 157 393 196 592 95 49 -25 175 -139 195 -177 9 -18 16 -18 171
9 89 15 166 31 173 34 17 11 -56 151 -118 226 -106 128 -273 231 -443 275 -96
24 -274 34 -356 19z"/>
<path d="M14051 4085 c-99 -22 -159 -44 -241 -87 -288 -153 -457 -458 -437
-791 16 -265 141 -490 352 -636 153 -106 286 -146 485 -146 205 1 333 44 473
160 l67 55 0 -85 0 -85 175 0 175 0 0 780 0 780 -175 0 -175 0 0 -81 0 -81
-38 34 c-178 161 -435 232 -661 183z m304 -340 c194 -51 345 -216 376 -410 46
-299 -196 -575 -505 -575 -225 0 -422 142 -486 349 -25 79 -26 206 -4 282 79
265 355 422 619 354z"/>
<path d="M16937 4090 c-345 -62 -600 -294 -688 -625 -30 -113 -30 -298 0 -410
82 -307 305 -528 618 -611 52 -14 103 -18 218 -18 133 1 160 4 238 28 151 45
265 115 368 222 160 170 235 361 232 594 -2 184 -58 351 -166 497 -102 138
-286 257 -467 304 -94 24 -272 34 -353 19z m266 -346 c194 -50 333 -199 374
-401 50 -245 -117 -501 -368 -568 -63 -17 -185 -19 -249 -4 -84 19 -169 68
-239 138 -201 198 -200 503 1 703 126 125 312 176 481 132z"/>
<path d="M19605 4085 c-92 -17 -154 -39 -246 -86 -413 -214 -565 -760 -324
-1170 174 -298 523 -456 872 -395 142 25 237 70 356 168 l47 40 0 -86 0 -86
175 0 175 0 0 780 0 780 -175 0 -175 0 0 -80 0 -81 -67 54 c-84 67 -142 101
-219 128 -138 48 -281 60 -419 34z m304 -340 c147 -39 266 -136 334 -273 l42
-85 0 -126 c0 -125 0 -127 -37 -204 -90 -187 -263 -297 -468 -297 -183 0 -332
81 -432 234 -214 329 31 762 432 765 41 1 99 -6 129 -14z"/>
<path d="M7635 4050 c-138 -21 -232 -67 -327 -162 l-68 -67 0 75 0 74 -172 -2
-173 -3 -3 -747 -2 -748 175 0 175 0 0 398 c0 222 5 425 10 460 22 136 81 235
180 303 76 52 138 70 258 76 l102 6 0 167 c0 165 0 168 -22 174 -28 7 -67 6
-133 -4z"/>
<path d="M16015 4045 c-111 -25 -216 -85 -288 -164 -20 -23 -39 -41 -42 -41
-3 0 -5 38 -5 85 l0 86 -132 -3 -131 -3 -13 -37 c-7 -20 -23 -83 -35 -140 -23
-100 -23 -120 -27 -730 l-3 -628 175 0 176 0 0 444 c0 416 1 448 20 509 36
115 118 207 230 256 58 25 171 45 221 38 l39 -5 -2 171 -3 172 -60 2 c-33 1
-87 -4 -120 -12z"/>
<path d="M18708 4045 c-90 -22 -177 -72 -250 -143 l-68 -65 0 86 0 87 -124 0
c-87 0 -127 -4 -134 -12 -14 -18 -41 -115 -59 -211 -11 -64 -15 -220 -20 -699
l-5 -618 176 0 176 0 0 444 c0 407 2 449 19 505 35 114 107 203 201 251 54 27
171 52 230 48 l45 -2 0 169 0 170 -65 2 c-36 1 -91 -5 -122 -12z"/>
</g>
</svg>
